<svg width="165" height="124" viewBox="0 0 165 124" fill="none" xmlns="http://www.w3.org/2000/svg">
<path d="M111.424 29.157C111.444 29.4748 111.454 29.7926 111.475 30.1002C111.475 30.1617 111.516 30.2437 111.588 30.2437C120.236 31.433 128.957 30.4283 137.636 30.4488C140.091 30.4488 142.535 30.541 144.98 30.7768C145.042 30.7871 145.114 30.7256 145.124 30.6641C145.206 30.2437 145.298 29.8234 145.381 29.4031C145.422 29.2083 145.124 29.1263 145.083 29.321C145.001 29.7414 144.908 30.1617 144.826 30.5821C144.877 30.541 144.929 30.5103 144.97 30.4693C136.373 29.6286 127.745 30.6846 119.127 30.5C116.631 30.4488 114.135 30.2847 111.66 29.9464C111.701 29.9977 111.732 30.0489 111.773 30.09C111.752 29.7721 111.742 29.4543 111.721 29.1468C111.721 28.9622 111.413 28.9622 111.424 29.157Z" fill="#919B9B"/>
<path d="M111.68 29.3108C120.37 29.3108 129.07 29.3108 137.759 29.3108C140.225 29.3108 142.69 29.3108 145.155 29.3108C145.35 29.3108 145.35 29.0032 145.155 29.0032C136.465 29.0032 127.765 29.0032 119.076 29.0032C116.611 29.0032 114.146 29.0032 111.68 29.0032C111.485 29.0032 111.485 29.3108 111.68 29.3108Z" fill="#919B9B"/>
<path d="M113.549 29.0647C113.806 25.3842 114.022 21.6935 114.34 18.0232C114.381 17.5414 114.433 17.0698 114.515 16.5982C114.546 16.4239 114.556 16.0651 114.659 15.9215C114.792 15.737 115.08 15.737 115.285 15.7062C115.758 15.6242 116.549 15.3372 116.877 15.819C116.97 15.9625 116.99 16.2599 117.021 16.4341C117.083 16.7417 117.124 17.0493 117.155 17.3568C117.319 19.1612 117.083 20.9963 116.949 22.8007C116.795 24.8921 116.641 26.9835 116.487 29.075C116.477 29.2698 116.785 29.2698 116.795 29.075C117.021 26.0814 117.268 23.098 117.453 20.1044C117.535 18.7306 117.576 17.3261 117.237 15.9728C117.144 15.5935 117.001 15.2757 116.569 15.2346C115.912 15.1834 115.152 15.4089 114.515 15.5422C114.464 15.5525 114.423 15.6037 114.412 15.6447C113.868 17.7669 113.888 20.0531 113.734 22.2266C113.57 24.5025 113.416 26.7887 113.252 29.0647C113.231 29.2595 113.539 29.2595 113.549 29.0647Z" fill="#919B9B"/>
<path d="M117.371 19.807C118.624 22.9544 119.949 26.0711 121.335 29.1569C121.417 29.3415 121.685 29.1774 121.602 29.0032C120.226 25.9378 118.911 22.8417 117.668 19.725C117.596 19.5405 117.299 19.6225 117.371 19.807Z" fill="#919B9B"/>
<path d="M117.637 18.1565C117.894 17.4286 118.685 17.0288 119.425 17.2338C119.62 17.2851 119.702 16.9878 119.507 16.9365C118.603 16.6802 117.648 17.1928 117.34 18.0745C117.278 18.2693 117.576 18.341 117.637 18.1565Z" fill="#919B9B"/>
<path d="M119.425 17.2953C121.458 21.2321 123.482 25.1791 125.516 29.1159C125.608 29.2902 125.875 29.1364 125.783 28.9622C123.749 25.0254 121.726 21.0783 119.692 17.1415C119.599 16.957 119.332 17.1107 119.425 17.2953Z" fill="#919B9B"/>
<path d="M124.776 14.6503C125.105 19.4175 125.434 24.1847 125.752 28.9519C125.762 29.1467 126.07 29.1467 126.06 28.9519C125.731 24.1847 125.403 19.4175 125.084 14.6503C125.074 14.4555 124.766 14.4555 124.776 14.6503Z" fill="#919B9B"/>
<path d="M125.043 14.8143C125.567 14.3427 126.276 14.3427 126.933 14.4555C127.2 14.4965 127.488 14.5477 127.745 14.64C128.217 14.8143 128.145 15.2449 128.166 15.6652C128.228 17.1313 128.279 18.5973 128.341 20.0634C128.454 23.0262 128.577 25.9993 128.69 28.9622C128.7 29.157 129.008 29.157 128.998 28.9622C128.854 25.4149 128.721 21.8677 128.577 18.3308C128.546 17.4491 128.505 16.5571 128.474 15.6755C128.454 15.2244 128.515 14.6708 128.043 14.4247C127.55 14.1684 126.79 14.0761 126.235 14.0864C125.701 14.0966 125.228 14.2402 124.838 14.599C124.684 14.722 124.9 14.9476 125.043 14.8143Z" fill="#919B9B"/>
<path d="M119.672 17.121C120.648 17.1825 121.603 17.4696 122.537 17.7361C123.4 17.9822 124.242 18.2898 124.972 18.8229C125.136 18.9356 125.29 18.6691 125.126 18.5563C124.366 18.0129 123.503 17.6951 122.609 17.4388C121.644 17.162 120.668 16.8852 119.661 16.8135C119.466 16.7929 119.466 17.1005 119.672 17.121Z" fill="#919B9B"/>
<path d="M128.526 16.5776C128.978 16.4649 129.481 16.3521 129.953 16.4444C130.652 16.5879 130.796 17.203 130.827 17.8284C130.878 19.0894 130.898 20.3402 130.929 21.6012C130.991 24.0822 131.022 26.5632 131.032 29.0442C131.032 29.239 131.34 29.239 131.34 29.0442C131.33 26.0813 131.289 23.1287 131.207 20.1761C131.186 19.4585 131.165 18.7511 131.145 18.0334C131.124 17.5618 131.135 17.039 130.847 16.6391C130.313 15.8907 129.214 16.0753 128.454 16.2701C128.248 16.3316 128.331 16.6289 128.526 16.5776Z" fill="#919B9B"/>
<path d="M130.775 14.9578C130.775 15.8805 130.775 16.7929 130.775 17.7156C130.775 17.9104 131.083 17.9104 131.083 17.7156C131.083 16.7929 131.083 15.8805 131.083 14.9578C131.083 14.763 130.775 14.763 130.775 14.9578Z" fill="#919B9B"/>
<path d="M131.227 15.0706C131.309 15.1013 131.402 15.1321 131.484 15.1629C131.494 15.2346 131.504 15.3064 131.515 15.3884C131.535 15.5524 131.535 15.7267 131.556 15.901C131.576 16.1676 131.597 16.4444 131.617 16.7109C131.658 17.285 131.689 17.8694 131.72 18.4435C131.792 19.6328 131.843 20.822 131.884 22.0113C131.977 24.359 132.008 26.7067 132.008 29.0544C132.008 29.2492 132.316 29.2492 132.316 29.0544C132.316 26.1326 132.254 23.2005 132.121 20.2787C132.049 18.8536 131.967 17.4286 131.864 16.0035C131.843 15.655 131.905 15.0193 131.587 14.7733C131.371 14.6092 131.073 14.6708 130.96 14.9168C130.888 15.1013 131.145 15.2551 131.227 15.0706Z" fill="#919B9B"/>
<path d="M116.087 30.664C116.405 31.1971 116.713 31.9968 117.227 32.3761C117.73 32.7555 118.346 32.4171 118.901 32.6119C119.086 32.6734 119.168 32.3761 118.983 32.3146C118.49 32.1403 117.915 32.4171 117.473 32.1403C116.97 31.8328 116.651 31.0023 116.354 30.5C116.251 30.336 115.984 30.4897 116.087 30.664Z" fill="#919B9B"/>
<path d="M119.312 30.7973C119.271 31.3304 119.107 31.8122 118.84 32.2633C118.737 32.4376 119.004 32.5914 119.107 32.4171C119.415 31.9148 119.579 31.3714 119.62 30.7973C119.641 30.6025 119.333 30.6025 119.312 30.7973Z" fill="#919B9B"/>
<path d="M118.439 31.0536C118.531 31.5252 118.624 31.9968 118.727 32.4684C118.768 32.6632 119.066 32.5812 119.024 32.3864C118.932 31.9148 118.84 31.4432 118.737 30.9716C118.696 30.7768 118.398 30.8588 118.439 31.0536Z" fill="#919B9B"/>
<path d="M118.809 31.0434C118.829 31.0434 118.85 31.0536 118.87 31.0639C118.901 31.1254 118.901 31.1869 118.891 31.2484C118.88 31.3202 118.85 31.3919 118.829 31.4637C118.788 31.6072 118.778 31.7405 118.819 31.884C118.881 32.0788 119.148 31.9968 119.117 31.802C119.065 31.5252 119.106 31.2484 119.219 30.9921C119.117 30.9818 119.014 30.9613 118.922 30.9511C118.891 31.2689 118.87 31.597 118.839 31.9148C118.819 32.1096 119.127 32.1096 119.148 31.9148C119.178 31.597 119.199 31.2689 119.23 30.9511C119.25 30.7666 118.983 30.7666 118.932 30.9101C118.798 31.2279 118.778 31.556 118.829 31.884C118.932 31.8533 119.024 31.8328 119.127 31.802C119.035 31.4945 119.394 31.1151 119.086 30.8383C118.901 30.6743 118.603 30.7358 118.531 30.9716C118.449 31.1561 118.747 31.2381 118.809 31.0434Z" fill="#919B9B"/>
<path d="M134.904 28.7982C134.811 28.4188 134.77 28.0498 134.801 27.6602C134.75 27.7114 134.698 27.7627 134.647 27.814C136.465 27.7217 138.283 27.6089 140.101 27.5679C141.015 27.5474 141.929 27.5474 142.844 27.5679C143.049 27.5679 143.254 27.5782 143.45 27.5782C143.655 27.5884 144.076 27.5166 144.261 27.6089C144.672 27.8037 144.497 28.5931 144.497 28.9519C144.497 29.1467 144.805 29.1467 144.805 28.9519C144.805 28.4701 145.052 27.4449 144.395 27.3116C143.943 27.2193 143.409 27.2706 142.946 27.2603C142.371 27.2501 141.796 27.2398 141.221 27.2501C139.033 27.2603 136.845 27.3936 134.647 27.5064C134.565 27.5064 134.493 27.5782 134.493 27.6602C134.472 28.0805 134.503 28.4803 134.616 28.8802C134.647 29.075 134.945 28.9929 134.904 28.7982Z" fill="#919B9B"/>
<path d="M136.043 25.7123C136.166 26.2761 136.259 26.84 136.3 27.4141C136.31 27.6089 136.618 27.6089 136.608 27.4141C136.567 26.8092 136.474 26.2146 136.341 25.6302C136.3 25.4457 136.002 25.5277 136.043 25.7123Z" fill="#919B9B"/>
<path d="M136.249 25.9071C137.492 25.8046 138.735 25.6918 139.978 25.743C141.149 25.7943 142.33 26.1736 143.501 26.0506C143.45 25.9993 143.398 25.9481 143.347 25.8968C143.306 26.4402 143.367 26.9528 143.542 27.4756C143.604 27.6602 143.902 27.5782 143.84 27.3936C143.676 26.9015 143.614 26.4197 143.655 25.8968C143.665 25.8148 143.583 25.7328 143.501 25.743C142.33 25.8558 141.149 25.4765 139.978 25.4355C138.735 25.3842 137.482 25.497 136.249 25.5995C136.054 25.6098 136.054 25.9173 136.249 25.9071Z" fill="#919B9B"/>
<path d="M125.793 57.7193C125.793 58.1499 125.793 58.5702 125.793 59.0008C125.793 59.1956 126.101 59.1956 126.101 59.0008C126.101 58.5702 126.101 58.1499 126.101 57.7193C126.101 57.5245 125.793 57.5245 125.793 57.7193Z" fill="#919B9B"/>
<path d="M125.947 57.6167C133.938 57.6167 141.929 57.6167 149.921 57.6167C150.116 57.6167 150.116 57.3092 149.921 57.3092C141.929 57.3092 133.938 57.3092 125.947 57.3092C125.742 57.3092 125.742 57.6167 125.947 57.6167Z" fill="#919B9B"/>
<path d="M126.193 59.0315C134.061 59.0315 141.919 59.0315 149.787 59.0315C149.982 59.0315 149.982 58.7239 149.787 58.7239C141.919 58.7239 134.061 58.7239 126.193 58.7239C125.998 58.7239 125.998 59.0315 126.193 59.0315Z" fill="#919B9B"/>
<path d="M149.767 57.7193C149.767 58.0166 149.767 58.3139 149.767 58.6112C149.767 58.806 150.075 58.806 150.075 58.6112C150.075 58.3139 150.075 58.0166 150.075 57.7193C150.075 57.5245 149.767 57.5245 149.767 57.7193Z" fill="#919B9B"/>
<path d="M128.166 54.2643C128.433 55.3203 128.68 56.3865 128.885 57.4527C128.926 57.6475 129.224 57.5655 129.183 57.3707C128.977 56.3045 128.741 55.2382 128.464 54.1823C128.412 53.9875 128.115 54.0695 128.166 54.2643Z" fill="#919B9B"/>
<path d="M133.506 54.172C133.26 55.228 133.054 56.284 132.9 57.3502C132.869 57.545 133.167 57.627 133.198 57.4322C133.352 56.366 133.557 55.2998 133.804 54.254C133.845 54.0593 133.547 53.9772 133.506 54.172Z" fill="#919B9B"/>
<path d="M127.324 53.6902C127.344 54.2233 128.146 54.1823 128.536 54.2028C129.419 54.2438 130.313 54.1105 131.196 54.0592C131.638 54.0285 132.079 54.0182 132.521 54.0592C132.881 54.09 133.271 54.213 133.62 54.1413C134.01 54.0592 134.257 53.6902 134.031 53.3313C133.928 53.1673 133.661 53.3211 133.764 53.4851C134.052 53.967 133.076 53.8132 132.983 53.8029C132.768 53.7722 132.542 53.7517 132.326 53.7414C131.823 53.7107 131.309 53.7414 130.806 53.7824C130.477 53.8029 127.642 54.1413 127.632 53.6902C127.632 53.4851 127.324 53.4851 127.324 53.6902Z" fill="#919B9B"/>
<path d="M127.683 53.6492C127.498 53.075 129.09 53.1365 129.357 53.1263C129.83 53.1058 130.312 53.0853 130.785 53.0648C131.042 53.0545 133.712 52.9828 133.64 53.1776C133.579 53.3621 133.876 53.4441 133.938 53.2596C134.246 52.3471 130.908 52.747 130.477 52.7675C129.675 52.7982 128.782 52.7265 128.001 52.8802C127.59 52.9623 127.241 53.2698 127.385 53.7209C127.447 53.9157 127.744 53.8337 127.683 53.6492Z" fill="#919B9B"/>
<path d="M129.05 52.7982C128.578 52.5829 128.157 52.2754 127.828 51.8858C127.694 51.7218 126.749 50.3582 127.304 50.2762C127.396 50.266 127.448 50.1224 127.396 50.0507C127.099 49.6201 126.975 49.0665 126.821 48.5744C126.647 48.0413 126.482 47.5082 126.308 46.9853C126.277 46.8725 126.225 46.77 126.205 46.6572C126.154 46.442 126.123 46.442 126.38 46.4214C126.657 46.4009 126.801 46.6162 126.986 46.8008C127.335 47.1493 127.643 47.5287 127.92 47.9285C128.958 49.4253 129.533 51.1887 129.964 52.9418C130.016 53.1366 130.313 53.0545 130.262 52.8597C129.707 50.6248 128.896 48.3283 127.253 46.6367C127.027 46.4009 126.595 45.8576 126.215 45.9191C125.928 45.9704 125.845 46.2779 125.866 46.5342C125.907 47.1083 126.215 47.7337 126.4 48.2873C126.606 48.923 126.739 49.6611 127.129 50.2147C127.16 50.1429 127.191 50.0609 127.222 49.9892C126.544 50.0917 126.934 51.0349 127.119 51.404C127.509 52.1524 128.136 52.7265 128.896 53.0853C129.071 53.1468 129.225 52.8803 129.05 52.7982Z" fill="#919B9B"/>
<path d="M129.398 49.9892C129.368 48.6872 129.337 47.3339 129.778 46.0934C129.994 45.4885 130.323 44.9452 130.703 44.4326C130.795 44.2993 130.898 44.084 131.042 44.002C131.144 43.838 131.299 43.8174 131.494 43.9507C131.74 43.8892 131.863 43.9507 131.863 44.1353C131.987 44.4121 131.946 44.8837 131.946 45.1707C131.946 45.8576 131.781 46.4932 131.617 47.1494C131.555 47.3749 131.504 47.6107 131.525 47.8363C131.545 48.1028 131.689 48.3079 131.761 48.5539C131.966 49.2511 131.607 49.9687 131.36 50.6043C131.114 51.2707 130.857 51.9371 130.61 52.6137C130.538 52.7983 130.836 52.8803 130.908 52.6958C131.237 51.8141 131.586 50.9426 131.894 50.0507C132.11 49.4253 132.213 48.882 131.966 48.2669C131.638 47.4364 132.161 46.5035 132.233 45.6526C132.274 45.099 132.367 44.1558 132.007 43.6637C131.227 42.5872 129.984 44.8837 129.737 45.3963C129.039 46.8316 129.049 48.4411 129.09 49.9995C129.101 50.1942 129.409 50.1942 129.398 49.9892Z" fill="#919B9B"/>
<path d="M126.811 47.4672C127.828 48.8922 128.434 50.6043 129.143 52.1934C129.225 52.378 129.492 52.2139 129.41 52.0396C128.711 50.4403 128.095 48.7385 127.078 47.3134C126.965 47.1494 126.698 47.3032 126.811 47.4672Z" fill="#919B9B"/>
<path d="M129.645 46.7393C129.686 47.2826 129.871 47.7645 130.21 48.1848C130.333 48.3386 130.549 48.1233 130.425 47.9695C130.148 47.6107 129.984 47.1904 129.953 46.7393C129.943 46.5445 129.635 46.5445 129.645 46.7393Z" fill="#919B9B"/>
<path d="M131.042 46.6675C131.289 46.2984 131.545 45.9294 131.792 45.5603C131.905 45.3963 131.638 45.2425 131.525 45.4065C131.278 45.7756 131.022 46.1447 130.775 46.5137C130.672 46.6778 130.939 46.8316 131.042 46.6675Z" fill="#919B9B"/>
<path d="M134.103 46.4624C133.846 46.8725 133.476 47.1903 133.137 47.5184C132.767 47.867 132.398 48.2258 132.028 48.5744C131.884 48.7076 132.1 48.9332 132.244 48.7897C132.952 48.113 133.846 47.4569 134.37 46.6162C134.472 46.4522 134.205 46.2984 134.103 46.4624Z" fill="#919B9B"/>
<path d="M133.969 46.8726C133.99 47.4159 134.894 48.4206 134.195 48.7487C134.103 48.8 134.103 48.923 134.164 48.9948C134.401 49.2818 134.247 49.7124 134.216 50.0507C134.185 50.4301 134.216 50.8094 134.113 51.1785C133.928 51.8859 133.271 52.3062 132.685 52.6753C132.521 52.7778 132.675 53.0443 132.839 52.9418C133.548 52.4907 134.277 51.9781 134.442 51.0964C134.524 50.6248 134.524 50.1327 134.565 49.6611C134.606 49.3228 134.596 49.0563 134.37 48.7897C134.36 48.8717 134.349 48.9538 134.339 49.0358C135.315 48.5744 134.288 47.5287 134.267 46.8931C134.267 46.6778 133.959 46.6778 133.969 46.8726Z" fill="#919B9B"/>
<path d="M133.476 48.3796C132.767 49.5176 132.161 50.7069 131.658 51.9576C131.586 52.1422 131.884 52.2242 131.956 52.0396C132.449 50.8196 133.044 49.6509 133.743 48.5334C133.846 48.3591 133.579 48.2054 133.476 48.3796Z" fill="#919B9B"/>
<path d="M128.71 56.366C129.121 56.9196 129.686 57.2989 130.364 57.4424C130.559 57.4834 130.641 57.1861 130.446 57.1451C129.851 57.0221 129.337 56.7043 128.977 56.2122C128.864 56.0584 128.597 56.2122 128.71 56.366Z" fill="#919B9B"/>
<path d="M128.536 55.105C129.594 55.9149 130.713 57.0734 132.069 57.3502C132.264 57.3912 132.346 57.0939 132.151 57.0529C130.836 56.7863 129.727 55.6278 128.69 54.8384C128.536 54.7154 128.382 54.9819 128.536 55.105Z" fill="#919B9B"/>
<path d="M129.347 54.3259C129.984 54.8487 130.6 55.3818 131.247 55.8842C131.525 56.0995 131.812 56.3045 132.151 56.4378C132.47 56.5711 132.809 56.6326 133.096 56.8376C133.26 56.9504 133.415 56.6838 133.25 56.5711C133.024 56.4173 132.798 56.3455 132.552 56.2532C132.131 56.1097 131.792 55.9149 131.442 55.6381C130.806 55.146 130.189 54.6232 129.573 54.1106C129.409 53.9875 129.193 54.2028 129.347 54.3259Z" fill="#919B9B"/>
<path d="M131.031 54.1823C131.627 54.7974 132.346 55.2485 133.168 55.5151C133.353 55.5766 133.435 55.2793 133.25 55.2177C132.48 54.9614 131.812 54.5411 131.247 53.9567C131.114 53.8235 130.888 54.0388 131.031 54.1823Z" fill="#919B9B"/>
<path d="M138.591 57.1656C138.53 57.0016 138.437 56.7863 138.447 56.612C138.489 56.1609 138.797 56.1199 139.095 56.0687C139.526 55.9866 139.978 55.9764 140.42 55.9764C141.169 55.9661 141.929 56.0277 142.679 56.0584C143.429 56.0789 144.169 56.0379 144.918 55.9764C145.227 55.9456 145.771 55.8226 146.069 55.9251C146.377 56.0379 146.459 56.1917 146.469 56.4788C146.48 56.7043 146.48 56.9298 146.49 57.1656C146.5 57.3604 146.808 57.3604 146.798 57.1656C146.788 56.8171 146.891 56.2019 146.716 55.8739C146.552 55.5868 146.172 55.6176 145.884 55.6176C144.713 55.6176 143.573 55.7919 142.392 55.7406C141.303 55.6996 140.204 55.6073 139.125 55.7713C138.242 55.9046 138.016 56.448 138.314 57.2682C138.355 57.4322 138.653 57.3502 138.591 57.1656Z" fill="#919B9B"/>
<path d="M140.769 55.5151C140.851 55.3305 140.923 55.146 141.005 54.9615C141.098 54.9512 141.19 54.941 141.283 54.9204C141.406 54.9102 141.519 54.9204 141.642 54.9102C141.909 54.9102 142.166 54.8999 142.433 54.8999C142.998 54.8897 143.553 54.8897 144.118 54.8794C144.641 54.8692 145.176 54.8692 145.699 54.8589C145.833 54.8589 145.966 54.8589 146.1 54.8487C146.264 54.8487 146.316 54.8077 146.367 54.9307C146.429 55.0845 146.316 55.5151 146.295 55.6791C146.275 55.8739 146.583 55.8739 146.603 55.6791C146.624 55.433 146.778 54.9204 146.655 54.6949C146.552 54.5104 146.398 54.5411 146.192 54.5411C145.206 54.5411 144.21 54.5719 143.224 54.5821C142.762 54.5924 142.3 54.5924 141.837 54.6026C141.488 54.6026 141.057 54.5616 140.738 54.7257C140.369 54.9204 140.194 55.4228 140.553 55.7201C140.708 55.8534 140.923 55.6381 140.769 55.5151Z" fill="#919B9B"/>
<path d="M142.885 54.2643C142.618 53.9055 143.737 53.9465 143.809 53.9363C144.056 53.9158 144.898 53.762 144.733 54.3156C144.672 54.5104 144.97 54.5821 145.031 54.3976C145.103 54.1516 145.021 53.926 144.826 53.762C144.487 53.4852 144.066 53.6185 143.665 53.639C143.347 53.6492 142.967 53.5467 142.71 53.7927C142.525 53.9568 142.474 54.2131 142.618 54.4181C142.741 54.5719 143.008 54.4181 142.885 54.2643Z" fill="#919B9B"/>
<path d="M127.17 59.2571C127.56 59.7902 128.022 60.231 128.567 60.6001C128.731 60.7129 128.885 60.4463 128.721 60.3335C128.228 59.9952 127.786 59.5851 127.437 59.093C127.314 58.9393 127.046 59.093 127.17 59.2571Z" fill="#919B9B"/>
<path d="M128.525 60.4976C128.864 60.4976 129.203 60.4976 129.542 60.4976C129.737 60.4976 130.056 60.5488 130.23 60.4566C130.364 60.3848 130.405 60.2208 130.467 60.0977C130.631 59.7697 130.826 59.4621 131.052 59.1648C131.175 59.011 130.96 58.7957 130.836 58.9495C130.723 59.0828 130.621 59.2263 130.518 59.3698C130.395 59.5646 130.312 59.8414 130.169 60.0157C129.881 60.354 128.946 60.2003 128.525 60.19C128.33 60.19 128.33 60.4976 128.525 60.4976Z" fill="#919B9B"/>
<path d="M129.666 59.2365C129.748 59.5441 129.83 59.8619 129.922 60.1695C129.974 60.3643 130.272 60.2823 130.22 60.0875C130.138 59.7799 130.056 59.4621 129.963 59.1545C129.912 58.9597 129.614 59.0418 129.666 59.2365Z" fill="#919B9B"/>
<path d="M142.186 59.1853C142.351 59.5237 142.525 59.8517 142.741 60.1593C142.854 60.3233 142.998 60.5796 143.193 60.6719C143.398 60.7744 143.686 60.6924 143.891 60.6719C144.261 60.6309 144.631 60.6001 145.001 60.5591C145.196 60.5386 145.196 60.2311 145.001 60.2516C144.754 60.2721 144.508 60.3028 144.261 60.3233C144.045 60.3438 143.727 60.4361 143.522 60.3951C142.988 60.2926 142.659 59.4519 142.453 59.0213C142.361 58.847 142.094 59.0008 142.186 59.1853Z" fill="#919B9B"/>
<path d="M145.011 58.929C144.887 59.3698 144.826 59.8209 144.836 60.272C144.846 60.4668 145.154 60.4668 145.144 60.272C145.134 59.8414 145.185 59.4211 145.298 59.011C145.36 58.8265 145.062 58.7445 145.011 58.929Z" fill="#919B9B"/>
<path d="M145.144 60.4258C145.555 60.0362 145.945 59.6261 146.325 59.2058C146.459 59.0623 146.243 58.8367 146.11 58.9905C145.73 59.4109 145.339 59.8209 144.928 60.2105C144.785 60.3438 145 60.5591 145.144 60.4258Z" fill="#919B9B"/>
<path d="M79.1818 29.1569C79.1818 32.048 79.1818 34.9289 79.1818 37.8199C79.1818 38.0147 79.49 38.0147 79.49 37.8199C79.49 34.9289 79.49 32.048 79.49 29.1569C79.49 28.9621 79.1818 28.9621 79.1818 29.1569Z" fill="#919B9B"/>
<path d="M79.4291 38.0558C83.096 38.0558 86.7731 38.0558 90.44 38.0558C90.6352 38.0558 90.6352 37.7482 90.44 37.7482C86.7731 37.7482 83.096 37.7482 79.4291 37.7482C79.2237 37.7482 79.2237 38.0558 79.4291 38.0558Z" fill="#919B9B"/>
<path d="M79.4291 29.3107C82.9933 29.3107 86.5472 29.3107 90.1113 29.3107C90.3065 29.3107 90.3065 29.0032 90.1113 29.0032C86.5472 29.0032 82.9933 29.0032 79.4291 29.0032C79.2237 29.0032 79.2237 29.3107 79.4291 29.3107Z" fill="#919B9B"/>
<path d="M90.1104 29.1569C90.1104 32.048 90.1104 34.9289 90.1104 37.8199C90.1104 38.0147 90.4186 38.0147 90.4186 37.8199C90.4186 34.9289 90.4186 32.048 90.4186 29.1569C90.4186 28.9621 90.1104 28.9621 90.1104 29.1569Z" fill="#919B9B"/>
<path d="M84.9133 28.9007C84.903 28.7674 84.9236 28.6444 84.9852 28.5213C85.016 28.4496 85.1393 28.265 85.2112 28.3163C85.2933 28.3676 85.3242 28.6034 85.3344 28.6854C85.3652 28.8392 85.3653 28.9929 85.3447 29.1467C85.3242 29.3415 85.6323 29.3415 85.6529 29.1467C85.6734 28.8802 85.6529 28.6136 85.5604 28.3573C85.4988 28.1933 85.4166 27.9985 85.2215 27.978C84.8003 27.9267 84.5846 28.5726 84.6052 28.8904C84.6154 29.1057 84.9236 29.1057 84.9133 28.9007Z" fill="#919B9B"/>
<path d="M79.7668 30.1514C79.7668 32.4581 79.7668 34.7546 79.7668 37.0613C79.7668 37.2561 80.075 37.2561 80.075 37.0613C80.075 34.7546 80.075 32.4581 80.075 30.1514C80.075 29.9566 79.7668 29.9566 79.7668 30.1514Z" fill="#919B9B"/>
<path d="M79.9215 37.2151C83.1467 37.2151 86.3719 37.2151 89.5971 37.2151C89.7922 37.2151 89.7922 36.9075 89.5971 36.9075C86.3719 36.9075 83.1467 36.9075 79.9215 36.9075C79.7263 36.9075 79.7263 37.2151 79.9215 37.2151Z" fill="#919B9B"/>
<path d="M89.8432 36.9793C89.8432 34.6726 89.8432 32.3762 89.8432 30.0694C89.8432 29.8746 89.5351 29.8746 89.5351 30.0694C89.5351 32.3762 89.5351 34.6726 89.5351 36.9793C89.5351 37.1844 89.8432 37.1844 89.8432 36.9793Z" fill="#919B9B"/>
<path d="M80.0034 30.3872C83.1156 30.3872 86.2278 30.3872 89.3503 30.3872C89.5454 30.3872 89.5454 30.0797 89.3503 30.0797C86.2381 30.0797 83.1258 30.0797 80.0034 30.0797C79.8082 30.0797 79.8082 30.3872 80.0034 30.3872Z" fill="#919B9B"/>
<path d="M80.0537 35.585C81.2554 35.2262 82.4777 34.9084 83.6692 35.462C84.5217 35.8618 85.2613 36.4667 86.2165 36.641C86.4117 36.6718 86.4938 36.3847 86.2987 36.3437C85.2099 36.1386 84.3882 35.3492 83.3508 35.0007C82.2312 34.6316 81.0603 34.9597 79.9715 35.2877C79.7866 35.3492 79.8688 35.6465 80.0537 35.585Z" fill="#919B9B"/>
<path d="M84.0607 35.4107C85.5295 34.8981 87.0599 34.7136 88.6006 34.8674C88.7957 34.8879 88.7957 34.5803 88.6006 34.5598C87.0291 34.406 85.4678 34.5906 83.9785 35.1134C83.7936 35.1852 83.8758 35.4825 84.0607 35.4107Z" fill="#919B9B"/>
<path d="M84.3787 33.0322C84.2657 32.8375 84.2966 32.5504 84.4917 32.4171C84.6663 32.2941 84.9437 32.3454 85.0669 32.5094C85.1902 32.6837 85.1183 32.9605 84.9231 33.063C84.6971 33.1758 84.4404 32.9605 84.4404 32.7349C84.4404 32.5401 84.1322 32.5401 84.1322 32.7349C84.1219 33.145 84.5431 33.4936 84.9539 33.3808C85.334 33.2783 85.5394 32.7964 85.3751 32.4479C85.2107 32.0788 84.7177 31.9455 84.3685 32.1301C83.9884 32.3351 83.896 32.8375 84.1014 33.1963C84.2144 33.3603 84.4712 33.2065 84.3787 33.0322Z" fill="#919B9B"/>
<path d="M134.411 30.6435C134.78 31.1356 134.852 31.802 135.304 32.2326C135.725 32.6427 136.229 32.5811 136.742 32.3966C136.927 32.3351 136.845 32.0378 136.66 32.0993C136.383 32.1916 136.064 32.2941 135.777 32.1813C135.53 32.0788 135.366 31.8533 135.243 31.6175C135.048 31.2381 134.935 30.828 134.678 30.4795C134.555 30.3257 134.287 30.4795 134.411 30.6435Z" fill="#919B9B"/>
<path d="M136.701 32.2736C137.194 31.8532 137.626 31.3714 137.996 30.8383C138.109 30.6743 137.842 30.5205 137.729 30.6845C137.379 31.1971 136.958 31.6585 136.486 32.0583C136.332 32.1813 136.547 32.4069 136.701 32.2736Z" fill="#919B9B"/>
<path d="M135.951 30.5307C136.095 30.869 136.157 31.2176 136.147 31.5764C136.136 31.7712 136.444 31.7712 136.455 31.5764C136.465 31.1561 136.383 30.7562 136.218 30.3769C136.147 30.1924 135.88 30.3462 135.951 30.5307Z" fill="#919B9B"/>
<path d="M127.724 70.6369C127.724 72.0004 127.724 73.3742 127.724 74.7377C127.724 74.9325 128.032 74.9325 128.032 74.7377C128.032 73.3742 128.032 72.0004 128.032 70.6369C128.032 70.4421 127.724 70.4421 127.724 70.6369Z" fill="#919B9B"/>
<path d="M123.975 75.3016C127.601 75.3016 131.237 75.3016 134.863 75.3016C135.058 75.3016 135.058 74.994 134.863 74.994C131.237 74.994 127.601 74.994 123.975 74.994C123.78 74.994 123.78 75.3016 123.975 75.3016Z" fill="#919B9B"/>
<path d="M129.881 75.5579C129.881 76.4088 129.881 77.27 129.881 78.1209C129.881 78.3157 130.189 78.3157 130.189 78.1209C130.189 77.27 130.189 76.4088 130.189 75.5579C130.189 75.3631 129.881 75.3631 129.881 75.5579Z" fill="#919B9B"/>
<path d="M123.871 78.5823C127.086 78.5823 130.311 78.5823 133.526 78.5823C133.722 78.5823 133.722 78.2747 133.526 78.2747C130.311 78.2747 127.086 78.2747 123.871 78.2747C123.676 78.2747 123.676 78.5823 123.871 78.5823Z" fill="#919B9B"/>
<path d="M126.286 78.8386C126.286 79.4844 126.286 80.1406 126.286 80.7864C126.286 80.9812 126.594 80.9812 126.594 80.7864C126.594 80.1406 126.594 79.4844 126.594 78.8386C126.594 78.6438 126.286 78.6438 126.286 78.8386Z" fill="#919B9B"/>
<path d="M127.313 29.198C127.313 28.7674 127.231 28.224 127.313 27.8037C127.426 27.2091 128.258 27.3218 128.741 27.2911C128.936 27.2808 128.936 26.9733 128.741 26.9835C128.351 27.004 127.94 27.004 127.549 27.0655C127.375 27.0963 127.221 27.1476 127.118 27.3013C126.995 27.4859 127.015 27.7422 127.015 27.9575C127.015 28.3676 127.015 28.7879 127.015 29.198C127.005 29.403 127.313 29.403 127.313 29.198Z" fill="#919B9B"/>
<path d="M125.505 17.7464C126.44 17.4901 127.375 17.5516 128.268 17.9105C128.453 17.9822 128.535 17.6849 128.35 17.6132C127.405 17.2338 126.409 17.1826 125.423 17.4491C125.228 17.5106 125.31 17.8079 125.505 17.7464Z" fill="#919B9B"/>
<path d="M125.126 16.8237C125.947 16.2599 126.933 16.1573 127.858 16.5264C128.043 16.5982 128.125 16.3009 127.94 16.2291C126.954 15.8293 125.845 15.9523 124.971 16.5572C124.807 16.6699 124.961 16.9365 125.126 16.8237Z" fill="#919B9B"/>
<path d="M121.787 22.1958C121.459 22.4213 120.832 22.7187 120.74 23.1492C120.699 23.3748 120.801 23.5798 120.884 23.7849C121.027 24.1437 121.171 24.5025 121.325 24.8613C121.921 26.2659 122.589 27.6396 123.328 28.9724C123.421 29.1467 123.688 28.9929 123.595 28.8186C123.03 27.7934 122.506 26.7477 122.024 25.6815C121.767 25.1176 121.52 24.5435 121.294 23.9694C121.161 23.6311 120.976 23.3338 121.223 22.9852C121.366 22.7802 121.736 22.6059 121.952 22.4624C122.106 22.3496 121.952 22.083 121.787 22.1958Z" fill="#919B9B"/>
<path d="M78.5961 72.4412C77.7538 73.0666 76.7369 74.0713 76.3672 75.5066C76.1001 76.5728 76.3569 77.1982 76.2645 78.5719C76.2028 79.5254 75.9563 80.8684 75.1654 82.4677C73.3679 82.0986 70.3482 81.7398 66.784 82.56C64.6578 83.0521 62.9528 83.821 61.6997 84.5181C61.8948 84.6412 62.1619 84.7847 62.5008 84.877C64.4216 85.3998 66.445 83.7902 66.5067 83.903C66.5683 84.0055 64.247 85.0923 64.3702 86.0355C64.4524 86.6711 65.5925 87.0094 66.7737 87.3682C67.77 87.6655 68.715 87.9526 69.9784 87.8091C71.7142 87.6143 72.916 86.7428 73.4501 86.2918C73.9637 86.5481 74.7238 86.8864 75.679 87.1837C77.4354 87.7168 79.8594 88.4549 81.472 87.4502C82.5197 86.7941 82.8381 85.2563 83.4339 82.2012C84.1529 78.4797 84.4918 76.6138 83.5263 75.0862C82.2629 73.0461 79.6643 72.5745 78.5961 72.4412Z" fill="white" stroke="#161616" stroke-width="0.925" stroke-miterlimit="10"/>
<path d="M74.8367 82.5805C76.0795 83.0419 77.1066 83.8825 77.8154 85C77.9181 85.1641 78.1851 85.0103 78.0824 84.8462C77.3326 83.657 76.2336 82.7753 74.9188 82.2832C74.7237 82.2115 74.6518 82.5088 74.8367 82.5805Z" fill="#161616"/>
<path d="M68.2219 84.6002C66.9996 84.8052 66.0135 85.6254 65.5718 86.7736C65.4999 86.9581 65.7978 87.0402 65.8697 86.8556C66.2703 85.8099 67.1947 85.082 68.304 84.8975C68.4992 84.8667 68.417 84.5694 68.2219 84.6002Z" fill="#161616"/>
<path d="M69.6602 85.6254C69.2186 85.8919 68.8077 86.1995 68.4174 86.5276C68.1606 86.7531 67.873 87.0197 67.9346 87.3887C68.0887 88.3627 69.2596 88.1474 69.8965 87.9013C70.0813 87.8296 69.9992 87.5323 69.8143 87.604C69.537 87.7065 69.2288 87.8398 68.931 87.8296C68.4482 87.8091 68.0168 87.3477 68.4277 86.9274C68.818 86.5173 69.3315 86.1892 69.8143 85.8817C69.9786 85.7792 69.8246 85.5126 69.6602 85.6254Z" fill="#161616"/>
<path d="M88.1796 59.8209C87.6557 59.9952 86.9881 60.2617 86.2383 60.6308C86.0226 60.7333 85.4782 61.0101 84.8927 61.3895C83.9888 61.9636 83.3315 62.5685 82.5817 63.3271C81.6264 64.3011 80.6609 65.275 79.5105 66.8333C78.545 68.1456 77.0454 70.2062 75.9669 73.2306C75.5355 74.4301 75.289 75.4656 75.1452 76.2037C75.7101 75.8756 76.2237 75.7116 76.6243 75.6193C78.9353 75.0965 81.1539 76.2652 83.2596 77.3622C84.0505 77.7723 84.677 78.1721 85.1084 78.4489C85.3344 77.3417 85.5604 76.2242 85.7863 75.117C85.9815 74.1841 86.1664 73.2409 86.3615 72.3079C86.6594 72.0516 87.06 71.6723 87.5016 71.1802C88.3336 70.237 89.9873 68.3609 90.2133 65.7568C90.4906 62.753 88.7034 60.4565 88.1796 59.8209Z" fill="#F48A19"/>
<path d="M87.5731 59.944C86.474 60.108 85.5291 60.6924 84.6765 61.369C83.6905 62.1379 82.7661 62.9888 81.9033 63.891C80.2188 65.6339 78.75 67.5818 77.5379 69.6834C77.4352 69.8577 77.7023 70.0115 77.805 69.8372C78.9759 67.8073 80.3728 65.9209 81.9957 64.2293C82.7866 63.4092 83.6186 62.63 84.4916 61.9021C85.4263 61.1332 86.4227 60.4156 87.6552 60.231C87.8504 60.2105 87.7682 59.9132 87.5731 59.944Z" fill="#161616"/>
<path d="M87.1417 71.1392C86.3817 71.9081 85.601 72.6565 84.8101 73.3844C84.6663 73.5176 84.882 73.7329 85.0258 73.5997C85.8167 72.8718 86.5974 72.1234 87.3574 71.3545C87.491 71.2109 87.2753 70.9956 87.1417 71.1392Z" fill="#161616"/>
<path d="M86.0738 72.5437C85.7143 74.5121 85.365 76.4908 85.0055 78.4592C85.0774 78.4284 85.1596 78.3976 85.2315 78.3669C83.5984 77.2289 81.7803 76.378 79.8493 75.8449C78.3394 75.4348 76.4187 75.035 75.1245 76.1729C74.9807 76.3062 75.1964 76.5215 75.3402 76.3882C76.6549 75.2195 78.7811 75.8346 80.2705 76.2857C81.9858 76.8086 83.5984 77.6082 85.0672 78.6232C85.1493 78.6745 85.2726 78.6232 85.2931 78.5309C85.6526 76.5625 86.0019 74.5839 86.3614 72.6155C86.4024 72.4309 86.1046 72.3489 86.0738 72.5437Z" fill="#161616"/>
<path d="M77.6097 69.5399C76.5415 71.621 75.2062 73.7637 75.1138 76.173C75.1035 76.3677 75.4117 76.3677 75.4219 76.173C75.5144 73.8252 76.8291 71.7338 77.8768 69.6936C77.959 69.5194 77.6919 69.3656 77.6097 69.5399Z" fill="#161616"/>
<path opacity="0.4" d="M86.7411 65.6646C84.9025 69.3143 83.9062 72.39 83.3207 74.5429C82.4682 77.7005 82.1703 80.1918 79.962 82.2627C79.6025 82.601 78.5445 83.575 76.8806 84.1799C73.3883 85.4409 70.7999 83.739 68.6019 85.5434C68.3554 85.7484 67.6261 86.261 67.7083 86.8454C67.7904 87.399 68.5505 87.6861 68.6635 87.7373C69.5674 88.0859 70.5021 87.7271 71.673 87.2555C72.998 86.7224 72.8542 86.5378 73.4499 86.4353C74.7031 86.22 75.2782 87.0094 76.9422 87.5323C77.6509 87.7476 79.7463 88.4037 81.2562 87.5323C82.3655 86.8864 82.7044 85.6767 83.2386 83.6365C83.6083 82.2525 83.9884 80.2328 83.9267 77.6903C84.3376 78.0081 84.7484 78.3259 85.1593 78.6437C85.6934 74.3174 86.2172 69.991 86.7411 65.6646Z" fill="#3D3D3D"/>
<path opacity="0.38" d="M86.1253 70.1037C84.7181 72.759 84.0299 75.0042 83.6601 76.5215C82.9206 79.5664 83.1568 81.0017 82.1503 83.1444C81.0718 85.4716 79.3256 86.9479 78.1136 87.7886C78.7915 87.9423 80.4247 88.2294 81.6059 87.3067C82.4379 86.6608 82.6536 85.7381 82.972 84.2311C83.3725 82.3755 83.7937 80.2635 84.2045 77.9466C84.5229 78.1516 84.8413 78.3566 85.1598 78.5617C85.4884 75.7526 85.8069 72.923 86.1253 70.1037Z" fill="#3D3D3D"/>
<path d="M87.9638 59.6159C87.5941 62.0251 87.2346 64.4549 86.8853 66.8949C85.5295 76.3575 84.3586 85.6562 83.3725 94.8011C83.3931 95.1086 83.4752 95.6007 83.7834 96.0928C84.0915 96.5952 84.5024 96.8515 84.6975 96.9847C86.5669 98.3175 87.5016 98.9942 88.4466 99.4452C92.9762 101.629 97.9887 101.373 97.9887 101.373C99.0466 101.321 101.152 101.188 103.412 100.286C103.535 100.235 104.398 99.8348 106.124 99.0249C107.685 98.297 107.962 98.1535 108.342 97.8049C109.246 96.9745 109.595 95.9493 109.832 95.2214C110.335 93.6733 110.283 92.3611 110.263 92.0432C110.263 92.0432 110.16 89.4905 110.088 74.5839C110.078 71.5493 110.376 67.0897 111.978 61.5843C110.314 60.7744 108.753 60.026 106.873 59.1238C105.579 58.4984 104.377 57.9243 102.652 57.7193C102.159 57.6577 101.717 57.6372 101.06 57.6475C98.3892 57.668 96.1912 58.0781 95.2462 58.2421C93.4076 58.5394 90.922 58.9905 87.9638 59.6159Z" fill="#F48A19"/>
<path d="M87.881 59.9747C91.0651 59.2981 94.2801 58.7547 97.5053 58.3549C97.6491 58.3344 97.7313 58.1498 97.5875 58.0678C97.5464 58.0473 97.5053 58.0166 97.4539 57.9961C97.2793 57.8935 97.1252 58.1601 97.2999 58.2626C97.3409 58.2831 97.382 58.3139 97.4334 58.3344C97.4642 58.2421 97.4848 58.1396 97.5156 58.0473C94.2595 58.4472 91.0138 58.9905 87.8091 59.6774C87.6037 59.7184 87.6859 60.0157 87.881 59.9747Z" fill="#161616"/>
<path d="M86.9266 65.3468C85.7967 73.3844 84.7696 81.4323 83.8452 89.5007C83.7322 90.5157 83.6192 91.5204 83.5062 92.5353C83.4138 93.417 83.157 94.4114 83.27 95.2931C83.3727 96.0723 83.989 96.5644 84.5539 97.036C85.1702 97.5486 85.8173 98.0304 86.4952 98.4713C89.2787 100.265 92.5347 101.342 95.8421 101.537C99.776 101.762 103.731 100.757 107.089 98.7071C107.254 98.6045 107.1 98.338 106.935 98.4405C101.06 102.018 93.5824 102.162 87.5942 98.7686C86.906 98.379 86.2384 97.9484 85.6016 97.4768C84.9545 96.995 83.9068 96.3388 83.6397 95.5494C83.5165 95.1701 83.5781 94.7498 83.6192 94.3499C83.6705 93.8476 83.7322 93.335 83.7835 92.8326C83.8862 91.8894 83.989 90.9462 84.1019 90.0031C84.5436 86.1585 84.9956 82.3242 85.4886 78.49C86.0432 74.1328 86.6184 69.7757 87.2347 65.4288C87.2553 65.234 86.9574 65.152 86.9266 65.3468Z" fill="#161616"/>
<path d="M102.056 57.627C103.864 57.9858 105.559 58.8162 107.243 59.5236C108.897 60.2208 110.736 60.7846 112.194 61.8509C112.359 61.9636 112.513 61.6971 112.348 61.5843C110.921 60.5386 109.123 59.985 107.51 59.3083C105.764 58.5804 104.008 57.709 102.139 57.3297C101.943 57.2887 101.861 57.586 102.056 57.627Z" fill="#161616"/>
<path d="M110.109 75.0145C109.945 79.3307 109.781 83.6468 109.935 87.9527C110.007 90.0441 110.335 92.2175 109.945 94.2987C109.616 96.0108 108.651 97.7229 106.936 98.3585C106.751 98.4303 106.833 98.7276 107.018 98.6558C109.75 97.6409 110.459 94.5345 110.418 91.9305C110.397 90.1671 110.243 88.4038 110.202 86.6302C110.161 84.8258 110.181 83.0317 110.212 81.2273C110.253 79.1564 110.335 77.0855 110.407 75.0145C110.428 74.8095 110.12 74.8095 110.109 75.0145Z" fill="#161616"/>
<path opacity="0.38" d="M108.63 72.5847C108.086 74.4506 107.233 76.4908 105.918 78.5207C100.033 87.5528 89.2581 89.3571 86.5054 89.7365C90.2031 90.1261 93.9419 90.5464 97.7217 90.9975C101.892 91.4896 106.011 92.0124 110.068 92.5455C109.811 87.9629 109.811 84.1901 109.873 81.4938C109.986 75.9167 110.386 71.4057 109.657 71.2622C109.482 71.2212 109.174 71.416 108.63 72.5847Z" fill="#3D3D3D"/>
<path opacity="0.42" d="M109.893 75.9372C109.523 77.0239 108.958 78.5617 108.126 80.3353C106.955 82.8471 105.836 85.2666 104.388 86.7531C100.341 90.9052 92.4318 89.1111 92.4113 89.3982C92.401 89.5622 95.2975 90.0235 109.924 91.3666C109.924 86.22 109.914 81.0837 109.893 75.9372Z" fill="#3D3D3D"/>
<path d="M128.32 118.207C90.6242 113.183 52.918 108.159 15.2221 103.146C26.346 96.7079 37.4802 90.2696 48.604 83.8313C82.6125 87.1735 116.631 90.5259 150.64 93.8681C143.193 101.977 135.756 110.097 128.32 118.207Z" fill="white" stroke="#161616" stroke-width="0.925" stroke-miterlimit="10"/>
<path d="M14.8525 104.018C52.6409 109.021 90.4292 114.024 128.207 119.027" stroke="#161616" stroke-width="4.93333" stroke-miterlimit="10"/>
<path d="M127.488 119.252C135.407 110.897 143.326 102.531 151.235 94.1756" stroke="#161616" stroke-width="4.93333" stroke-miterlimit="10"/>
<path d="M114.875 97.2923C111.023 100.296 107.254 103.392 103.546 106.57C103.392 106.704 103.618 106.919 103.762 106.786C107.47 103.608 111.249 100.511 115.091 97.5075C115.245 97.3948 115.029 97.1692 114.875 97.2923Z" fill="#161616"/>
<path d="M103.69 106.734C104.902 106.991 106.134 106.991 107.377 107.001C108.774 107.022 110.089 107.165 111.424 107.555C113.93 108.283 116.385 108.764 119.004 108.703C119.2 108.703 119.2 108.395 119.004 108.395C117.659 108.426 116.313 108.344 114.978 108.129C113.725 107.924 112.533 107.555 111.311 107.216C110.14 106.888 108.969 106.734 107.747 106.714C106.412 106.683 105.076 106.724 103.762 106.447C103.577 106.396 103.495 106.693 103.69 106.734Z" fill="#161616"/>
<path d="M115.101 97.5178C119.169 97.8459 123.205 98.4917 127.17 99.4554C127.365 99.5067 127.447 99.2094 127.252 99.1581C123.267 98.1842 119.2 97.5383 115.101 97.2102C114.906 97.1897 114.906 97.4973 115.101 97.5178Z" fill="#161616"/>
<path d="M119.241 108.518C122.106 105.689 124.859 102.736 127.468 99.6605C127.591 99.5067 127.376 99.2914 127.252 99.4452C124.644 102.511 121.891 105.463 119.025 108.303C118.881 108.447 119.097 108.662 119.241 108.518Z" fill="#161616"/>
<path d="M107.275 105.514C110.808 105.084 114.382 105.525 117.7 106.816C117.885 106.888 117.967 106.591 117.782 106.519C114.444 105.227 110.828 104.776 107.275 105.207C107.079 105.227 107.079 105.535 107.275 105.514Z" fill="#161616"/>
<path d="M112.625 104.387C114.803 104.551 116.95 104.889 119.076 105.391C119.271 105.443 119.353 105.145 119.158 105.094C117.011 104.582 114.834 104.243 112.625 104.079C112.42 104.069 112.43 104.376 112.625 104.387Z" fill="#161616"/>
<path d="M110.992 102.121C114.269 102.193 117.515 102.664 120.678 103.536C120.873 103.587 120.956 103.29 120.76 103.239C117.576 102.367 114.3 101.885 110.992 101.813C110.797 101.813 110.797 102.121 110.992 102.121Z" fill="#161616"/>
<path d="M115.06 101.178C116.826 101.424 118.572 101.731 120.319 102.1C120.514 102.142 120.596 101.844 120.401 101.803C118.655 101.434 116.908 101.127 115.142 100.88C114.947 100.85 114.864 101.147 115.06 101.178Z" fill="#161616"/>
<path d="M112.81 108.057C112.184 109.021 111.557 109.984 110.92 110.938C110.859 111.03 110.941 111.184 111.054 111.174C116.117 110.599 121.253 110.928 126.204 112.137C126.399 112.189 126.481 111.891 126.286 111.84C121.304 110.62 116.148 110.292 111.054 110.856C111.095 110.938 111.146 111.01 111.187 111.092C111.814 110.128 112.44 109.164 113.077 108.211C113.19 108.047 112.923 107.893 112.81 108.057Z" fill="#161616"/>
<path d="M125.229 102.234C127.211 102.193 129.183 102.152 131.166 102.111C131.114 102.049 131.063 101.977 131.022 101.916C129.656 105.166 128.279 108.406 126.913 111.655C126.841 111.84 127.139 111.922 127.211 111.737C128.577 108.488 129.954 105.248 131.32 101.998C131.361 101.906 131.258 101.803 131.176 101.803C129.194 101.844 127.222 101.885 125.239 101.926C125.034 101.936 125.034 102.244 125.229 102.234Z" fill="#161616"/>
<path d="M117.72 109.872C118.244 109.769 118.768 109.749 119.302 109.79C119.497 109.8 119.497 109.492 119.302 109.482C118.737 109.441 118.192 109.472 117.638 109.574C117.443 109.605 117.525 109.902 117.72 109.872Z" fill="#161616"/>
<path d="M120.637 109.902C122.249 109.964 123.862 110.118 125.464 110.364C125.659 110.394 125.742 110.097 125.546 110.066C123.924 109.81 122.28 109.656 120.637 109.595C120.442 109.584 120.442 109.892 120.637 109.902Z" fill="#161616"/>
<path d="M120.73 107.975C121.11 107.975 121.49 107.975 121.88 107.975C122.075 107.975 122.075 107.667 121.88 107.667C121.5 107.667 121.12 107.667 120.73 107.667C120.535 107.667 120.535 107.975 120.73 107.975Z" fill="#161616"/>
<path d="M123.123 107.944C124.386 107.975 125.639 108.098 126.892 108.303C127.088 108.334 127.17 108.036 126.975 108.006C125.701 107.801 124.417 107.678 123.123 107.637C122.928 107.637 122.928 107.944 123.123 107.944Z" fill="#161616"/>
<path d="M122.928 106.191C124.366 106.212 125.794 106.294 127.221 106.458C127.417 106.478 127.417 106.171 127.221 106.15C125.794 105.986 124.366 105.894 122.928 105.884C122.733 105.873 122.733 106.181 122.928 106.191Z" fill="#161616"/>
<path d="M113.283 109.595C113.971 109.615 114.649 109.533 115.327 109.369C115.522 109.318 115.44 109.021 115.245 109.072C114.598 109.236 113.951 109.308 113.283 109.287C113.088 109.287 113.088 109.595 113.283 109.595Z" fill="#161616"/>
<path d="M118.162 93.5297C117.895 93.8578 117.587 94.5242 117.905 94.924C118.1 95.1701 118.47 95.1188 118.747 95.1291C119.251 95.1496 119.754 95.1803 120.257 95.2009C122.301 95.2931 124.335 95.3956 126.379 95.4879C126.574 95.4982 126.574 95.1906 126.379 95.1804C124.869 95.1086 123.37 95.0368 121.86 94.9651C121.12 94.9343 120.391 94.8933 119.651 94.8625C119.292 94.842 118.912 94.8625 118.552 94.8113C118.285 94.7703 118.09 94.76 118.1 94.4319C118.111 94.1756 118.224 93.9398 118.378 93.745C118.501 93.5913 118.285 93.3657 118.162 93.5297Z" fill="#161616"/>
<path d="M118.439 93.9193C120.165 93.9808 121.89 94.0321 123.616 94.0936C124.458 94.1244 125.311 94.1449 126.153 94.1756C126.913 94.2064 127.714 94.2576 128.259 94.842C128.392 94.9855 128.608 94.7703 128.474 94.6267C128.064 94.1756 127.509 94.0013 126.913 93.9193C126.03 93.8066 125.116 93.8271 124.222 93.7963C122.291 93.7348 120.36 93.663 118.439 93.6015C118.244 93.6118 118.244 93.9193 118.439 93.9193Z" fill="#161616"/>
<path d="M126.276 95.4981C127.067 95.5084 127.817 95.2623 128.454 94.7908C128.608 94.678 128.454 94.4114 128.3 94.5242C127.704 94.965 127.026 95.2008 126.276 95.1906C126.071 95.1906 126.071 95.4981 126.276 95.4981Z" fill="#161616"/>
<path d="M126.522 93.9193C126.091 94.2064 125.896 94.7395 126.04 95.2316C126.091 95.4161 126.389 95.3444 126.338 95.1496C126.235 94.7907 126.358 94.3909 126.677 94.1756C126.841 94.0731 126.687 93.8066 126.522 93.9193Z" fill="#161616"/>
<path d="M84.584 104.551C72.1043 102.418 59.6247 100.286 47.145 98.1535C54.7252 95.0983 62.3055 92.0535 69.8857 88.9984C81.7389 91.6331 93.592 94.2679 105.435 96.9027C98.4915 99.4555 91.5378 101.998 84.584 104.551Z" fill="white" stroke="#161616" stroke-width="0.925" stroke-miterlimit="10"/>
<path d="M84.0706 104.705C84.1116 104.828 84.1425 104.961 84.1835 105.084C84.2349 105.248 84.4814 105.217 84.4814 105.043C84.4814 104.94 84.4814 104.848 84.4814 104.746C84.4814 104.551 84.1733 104.551 84.1733 104.746C84.1733 104.869 84.1527 104.981 84.1014 105.094C84.2041 105.094 84.2965 105.094 84.3992 105.094C84.3582 104.961 84.3479 104.838 84.3787 104.694C84.2863 104.705 84.1938 104.715 84.1014 104.735C84.1322 104.766 84.1322 104.787 84.1116 104.817C84.2041 104.828 84.2965 104.838 84.389 104.858C84.3684 104.787 84.3787 104.725 84.4198 104.664C84.3273 104.633 84.2246 104.612 84.1322 104.581C84.1116 104.746 84.0911 104.899 84.0706 105.063C84.0603 105.145 84.1527 105.217 84.2246 105.217C84.3171 105.217 84.3684 105.145 84.3787 105.063C84.3992 104.899 84.4198 104.746 84.4403 104.581C84.4609 104.428 84.2246 104.387 84.1527 104.499C84.0706 104.633 84.05 104.787 84.0911 104.94C84.1219 105.074 84.3068 105.084 84.3684 104.981C84.4506 104.858 84.4506 104.705 84.3582 104.592C84.2863 104.499 84.1014 104.489 84.0808 104.633C84.0397 104.817 84.05 105.012 84.1014 105.197C84.1527 105.35 84.3479 105.33 84.3992 105.197C84.4506 105.053 84.4814 104.91 84.4814 104.766C84.3787 104.766 84.276 104.766 84.1733 104.766C84.1733 104.869 84.1733 104.961 84.1733 105.063C84.276 105.053 84.3787 105.033 84.4711 105.022C84.4301 104.899 84.3992 104.766 84.3582 104.643C84.3171 104.428 84.0192 104.51 84.0706 104.705Z" fill="#161616"/>
<path d="M84.307 105.443C85.9607 104.592 87.7685 104.141 89.5454 103.638C90.4185 103.392 91.2813 103.126 92.1132 102.777C92.9144 102.449 93.6848 102.039 94.4757 101.67C96.2321 100.85 98.1323 100.317 99.9708 99.7118C101.881 99.0761 103.782 98.4405 105.692 97.8151C105.877 97.7536 105.795 97.4563 105.61 97.5178C103.699 98.1534 101.799 98.7891 99.8887 99.4144C98.0809 100.009 96.2218 100.542 94.4859 101.332C93.5821 101.742 92.6987 102.224 91.7743 102.582C90.932 102.91 90.0693 103.167 89.1962 103.413C87.4809 103.905 85.745 104.356 84.1427 105.176C83.9783 105.268 84.1324 105.535 84.307 105.443Z" fill="#161616"/>
<path d="M84.4503 105.381C91.5478 102.931 98.6248 100.45 105.702 97.9279C106.256 97.7331 106.02 96.8412 105.455 97.036C98.3885 99.558 91.3013 102.039 84.2038 104.489C83.6491 104.684 83.8854 105.576 84.4503 105.381Z" fill="#161616"/>
<path d="M83.6492 95.4776C84.9845 95.6109 86.1246 96.4208 87.4393 96.6771C87.6345 96.7182 87.7167 96.4208 87.5215 96.3798C86.1862 96.1133 85.0256 95.3034 83.6492 95.1701C83.454 95.1598 83.454 95.4674 83.6492 95.4776Z" fill="#161616"/>
<path d="M87.5321 96.5336C88.3436 96.0928 89.1037 95.5699 89.7918 94.9548C89.9356 94.8215 89.7199 94.6062 89.5761 94.7395C88.8982 95.3341 88.169 95.8467 87.3781 96.2671C87.2034 96.3696 87.3575 96.6361 87.5321 96.5336Z" fill="#161616"/>
<path d="M83.968 94.8933C84.6151 94.432 85.2828 93.9911 85.971 93.581C86.1456 93.4785 85.9812 93.2119 85.8169 93.3145C85.1287 93.7246 84.4611 94.1552 83.814 94.6268C83.6496 94.7498 83.8037 95.0163 83.968 94.8933Z" fill="#161616"/>
<path d="M86.0221 93.6323C87.193 94.0731 88.364 94.5037 89.5452 94.9445C89.7301 95.0163 89.8122 94.719 89.6273 94.6472C88.4564 94.2064 87.2855 93.7758 86.1043 93.335C85.9194 93.2734 85.8372 93.5708 86.0221 93.6323Z" fill="#161616"/>
<path d="M82.7252 96.6464C85.8169 97.5998 88.8675 98.6968 91.8564 99.9373C92.0413 100.009 92.1235 99.7118 91.9386 99.64C88.9496 98.3995 85.8991 97.3025 82.8074 96.3491C82.6122 96.2876 82.5301 96.5849 82.7252 96.6464Z" fill="#161616"/>
<path d="M83.0229 99.0351C84.9436 99.9578 86.8849 100.829 88.8467 101.68C89.0316 101.762 89.1857 101.496 89.0008 101.414C87.039 100.573 85.0977 99.6913 83.1769 98.7686C83.0023 98.6866 82.8482 98.9531 83.0229 99.0351Z" fill="#161616"/>
<path d="M83.3002 101.67C84.3479 102.203 85.3956 102.746 86.4432 103.28C86.6178 103.372 86.7719 103.105 86.5973 103.013C85.5496 102.48 84.5019 101.936 83.4543 101.403C83.2797 101.311 83.1256 101.578 83.3002 101.67Z" fill="#161616"/>
<path d="M83.8961 101.762C85.3444 100.532 86.8645 99.4042 88.4463 98.3585C88.6107 98.2458 88.4566 97.9792 88.2922 98.092C86.6899 99.1479 85.1492 100.306 83.6804 101.547C83.5263 101.68 83.742 101.895 83.8961 101.762Z" fill="#161616"/>
<path d="M83.5156 99.6605C84.3373 99.0864 85.159 98.5123 85.9807 97.9279C86.1451 97.8151 85.991 97.5486 85.8267 97.6613C85.005 98.2355 84.1833 98.8096 83.3615 99.394C83.2075 99.5067 83.3615 99.7733 83.5156 99.6605Z" fill="#161616"/>
<path d="M84.0298 105.258C71.1187 103.064 58.2076 100.87 45.2965 98.6763C44.0845 89.5212 42.8622 80.3763 41.6502 71.2212C55.5473 73.0871 69.4342 74.953 83.3314 76.8291C83.5676 86.302 83.8038 95.7749 84.0298 105.258Z" fill="white" stroke="#161616" stroke-width="0.925" stroke-miterlimit="10"/>
<path d="M61.0219 89.4187C59.9023 89.0701 59.2963 88.1269 59.2038 86.9889C59.1114 85.8304 59.3374 84.713 60.4159 84.1081C61.3711 83.575 62.5112 83.7288 63.3637 84.3746C64.2162 85.0205 64.9763 86.3431 64.2881 87.358C64.1752 87.522 64.4422 87.6758 64.5552 87.5118C65.2947 86.4251 64.5963 84.9898 63.6924 84.2414C62.7577 83.4725 61.4943 83.2367 60.3953 83.78C59.1217 84.4054 58.793 85.6767 58.8957 86.9992C58.9984 88.2807 59.6763 89.3367 60.9397 89.7262C61.1246 89.7775 61.2067 89.4802 61.0219 89.4187Z" fill="#161616"/>
<path d="M61.3094 89.5315C60.8369 88.7523 60.991 87.6656 61.7511 87.1222C62.5112 86.5789 63.5999 86.8044 64.1751 87.5015C64.2984 87.6553 64.5141 87.44 64.3908 87.2863C63.7129 86.4763 62.4392 86.2508 61.5559 86.8762C60.6726 87.5118 60.4877 88.7831 61.0423 89.6853C61.1451 89.8493 61.4121 89.6955 61.3094 89.5315Z" fill="#161616"/>
<path d="M62.367 89.962C61.8843 89.4494 61.9562 88.496 62.6033 88.1269C63.2401 87.7578 64.1029 88.1782 64.3083 88.8548C64.3699 89.0393 64.6678 88.9676 64.6062 88.7728C64.3391 87.9116 63.2606 87.399 62.4492 87.8706C61.6378 88.3422 61.535 89.5314 62.1513 90.1876C62.2849 90.3208 62.5006 90.1055 62.367 89.962Z" fill="#161616"/>
<path d="M63.1579 90.6796C63.5585 90.8232 64.0207 90.5874 64.1747 90.2081C64.3391 89.8287 64.1234 89.4186 63.7639 89.2546C63.4044 89.0906 62.973 89.1828 62.7778 89.5314C62.5929 89.8697 62.6546 90.3311 62.9627 90.5771C63.1168 90.7001 63.3325 90.4849 63.1784 90.3618C62.7676 90.044 63.0552 89.2956 63.5995 89.5212C63.8358 89.6134 64.0001 89.8595 63.8871 90.1158C63.7742 90.3618 63.4866 90.4849 63.24 90.3926C63.0552 90.3208 62.973 90.6181 63.1579 90.6796Z" fill="#161616"/>
<path d="M83.3315 76.8189L84.2353 105.063" stroke="#161616" stroke-width="0.925" stroke-miterlimit="10"/>
<path d="M83.3927 76.7984C83.67 86.0868 83.9474 95.3752 84.2247 104.664" stroke="#161616" stroke-width="0.925" stroke-miterlimit="10"/>
<path opacity="0.37" d="M65.6129 74.912C66.2805 75.2605 72.012 78.3772 72.4125 83.9133C72.6385 86.9684 71.1389 89.2854 70.1939 90.7002C65.0993 98.3482 55.0231 99.7015 52.291 99.9886C56.266 102.623 70.1528 111.307 85.3339 110.794C88.7132 110.681 93.9516 110.446 99.6316 107.329C103.894 104.992 106.657 101.988 108.239 99.9886C107.263 99.3837 106.298 98.7891 105.322 98.1842C98.1526 100.634 90.9729 103.085 83.8035 105.525C83.4337 96.0518 83.0639 86.5891 82.6942 77.1162C76.9936 76.3985 71.3032 75.6604 65.6129 74.912Z" fill="#3D3D3D"/>
<path opacity="0.5" d="M57.4473 100.655C58.7826 101.537 60.8471 102.798 63.5177 104.007C66.8456 105.525 76.6958 110.015 87.3678 107.524C95.1226 105.709 101.121 100.737 100.731 99.9168C100.484 99.4042 97.4748 99.9373 84.0706 105.258C83.855 100.922 83.6393 96.5746 83.4338 92.238C83.0641 95.8878 82.684 99.5375 82.3142 103.177C74.0253 102.347 65.7363 101.496 57.4473 100.655Z" fill="#3D3D3D"/>
<path d="M60.2106 88.9676C59.4608 88.1475 59.2143 86.9992 59.584 85.9945C59.9641 84.9796 60.9707 84.1081 62.1724 84.1491C63.2304 84.1902 64.0829 84.9283 64.391 85.6254C64.617 86.1586 64.5656 86.6507 64.5656 86.6507C64.5348 86.9275 64.4424 87.1428 64.3705 87.276C63.8467 86.6712 63.0455 86.3944 62.2957 86.5686C61.3713 86.7839 60.9707 87.5733 60.9296 87.6451C60.5085 88.5063 60.8782 89.3059 60.9296 89.3982C60.6831 89.2444 60.4468 89.1009 60.2106 88.9676Z" fill="#2C2C2C"/>
<path d="M112.183 75.9885C111.629 76.3986 111.033 76.9522 110.488 77.6801C108.465 80.3969 108.742 83.5853 108.886 84.6207C107.089 84.2517 104.069 83.8928 100.505 84.713C98.3786 85.2051 96.6735 85.974 95.4204 86.6711C95.6156 86.7942 95.8826 86.9377 96.2216 87.03C98.1423 87.5528 100.166 85.9432 100.227 86.056C100.289 86.1585 97.9677 87.2453 98.091 88.1884C98.1731 88.8241 99.3133 89.1624 100.494 89.5212C101.491 89.8185 102.436 90.1056 103.699 89.9621C105.435 89.7673 106.637 88.8958 107.171 88.4448C107.684 88.7011 108.444 89.0394 109.4 89.3367C111.156 89.8698 113.58 90.6079 115.193 89.6032C116.24 88.9471 116.559 87.4093 117.155 84.3542C117.915 80.4379 118.295 78.4797 117.247 77.2392C115.86 75.5887 113.077 75.8655 112.183 75.9885Z" fill="white" stroke="#161616" stroke-width="0.925" stroke-miterlimit="10"/>
<path d="M108.537 84.7232C109.78 85.1846 110.807 86.0252 111.516 87.1427C111.619 87.3068 111.886 87.153 111.783 86.9889C111.033 85.7997 109.934 84.918 108.619 84.4259C108.435 84.3644 108.352 84.6617 108.537 84.7232Z" fill="#161616"/>
<path d="M101.932 86.7532C100.71 86.9582 99.7239 87.7784 99.2823 88.9266C99.2104 89.1112 99.5082 89.1932 99.5801 89.0086C99.9807 87.9629 100.905 87.235 102.014 87.0505C102.21 87.0197 102.127 86.7224 101.932 86.7532Z" fill="#161616"/>
<path d="M99.4259 89.1214C100.063 89.7263 100.946 89.9313 101.778 89.6648C101.963 89.6033 101.881 89.3059 101.696 89.3675C100.967 89.6033 100.196 89.4392 99.6416 88.9061C99.4978 88.7626 99.2821 88.9779 99.4259 89.1214Z" fill="#161616"/>
<path d="M103.36 87.7681C102.919 88.0347 102.508 88.3422 102.118 88.6703C101.861 88.8959 101.573 89.1624 101.635 89.5315C101.789 90.5054 102.96 90.2901 103.597 90.0441C103.781 89.9723 103.699 89.675 103.514 89.7468C103.237 89.8493 102.929 89.9826 102.631 89.9723C102.148 89.9518 101.717 89.4905 102.128 89.0701C102.518 88.6601 103.032 88.332 103.514 88.0244C103.689 87.9322 103.535 87.6656 103.36 87.7681Z" fill="#161616"/>
<path d="M111.67 61.3587C112.091 61.6868 112.635 62.1379 113.21 62.7223C113.375 62.8863 113.796 63.3169 114.217 63.85C114.874 64.6702 115.295 65.4493 115.758 66.4028C116.353 67.6228 116.949 68.8428 117.545 70.6676C118.048 72.2054 118.818 74.6249 118.911 77.8441C118.952 79.1153 118.87 80.1816 118.788 80.93C118.366 80.4481 117.945 80.1303 117.596 79.9253C115.634 78.7258 113.251 79.1563 111.002 79.5664C110.16 79.7202 109.461 79.9047 108.978 80.038C109.102 78.9103 109.215 77.7826 109.338 76.6548C109.441 75.7116 109.533 74.7582 109.636 73.8048C109.441 73.4664 109.174 72.9846 108.927 72.3797C108.444 71.2212 107.479 68.9453 108.033 66.3925C108.691 63.4604 111.002 61.7996 111.67 61.3587Z" fill="#F48A19"/>
<path d="M112.029 61.9227C113.056 62.4558 113.745 63.3785 114.34 64.3319C114.957 65.3161 115.511 66.3311 116.004 67.3768C117.011 69.5092 117.75 71.7647 118.233 74.0714C118.274 74.2662 118.572 74.1842 118.531 73.9894C118.038 71.5904 117.257 69.2632 116.189 67.0487C115.665 65.962 115.09 64.906 114.433 63.8911C113.847 62.9889 113.159 62.1482 112.194 61.6458C112.009 61.5638 111.855 61.8304 112.029 61.9227Z" fill="#161616"/>
<path d="M108.825 72.349C109.297 73.3127 109.79 74.2559 110.304 75.1991C110.396 75.3734 110.663 75.2196 110.571 75.0453C110.057 74.1021 109.564 73.1589 109.092 72.1952C108.999 72.0107 108.732 72.1645 108.825 72.349Z" fill="#161616"/>
<path d="M109.554 74.1124C109.297 76.1013 109.04 78.0902 108.794 80.0791C108.783 80.1816 108.907 80.2534 108.989 80.2226C110.735 79.669 112.553 79.4024 114.381 79.4639C115.829 79.5152 117.75 79.6485 118.562 81.0633C118.664 81.2376 118.921 81.0838 118.829 80.9095C118.058 79.5562 116.374 79.2794 114.956 79.1871C112.912 79.0436 110.858 79.3102 108.917 79.9253C108.978 79.9765 109.05 80.0278 109.112 80.0688C109.369 78.0799 109.626 76.091 109.872 74.1021C109.893 73.9176 109.584 73.9176 109.554 74.1124Z" fill="#161616"/>
<path d="M118.212 73.9176C118.572 76.173 119.157 78.5618 118.551 80.8275C118.5 81.0222 118.798 81.1043 118.849 80.9095C119.466 78.5925 118.88 76.1525 118.51 73.8355C118.48 73.6408 118.182 73.7228 118.212 73.9176Z" fill="#161616"/>
<path opacity="0.32" d="M110.889 60.9794C111.824 62.7223 112.758 64.8035 113.549 67.1922C115.1 71.9082 115.511 76.1423 115.542 79.3102C114.494 79.3717 113.447 79.4332 112.399 79.4947C112.738 81.9244 113.087 84.3644 113.426 86.7942C112.769 86.4149 111.762 85.933 110.468 85.646C110.047 85.5537 108.496 85.2461 106.842 85.5229C103.37 86.1073 101.275 88.9471 100.802 89.6238C101.275 89.8186 101.881 90.0031 102.61 90.0441C104.849 90.1774 106.483 88.8856 106.965 88.4755C108.496 89.2444 109.831 89.6135 110.776 89.798C112.43 90.1364 114.361 90.5259 115.429 89.5007C115.511 89.4187 115.696 89.2239 116.097 88.2295C116.723 86.6507 117.052 85.1744 117.483 82.4986C117.576 81.9039 117.709 81.1043 117.843 80.1508C118.099 80.4071 118.367 80.6737 118.623 80.93C118.747 80.4687 118.901 79.7818 118.983 78.9411C119.199 76.7574 118.777 75.035 118.377 73.6305C116.764 67.9509 115.799 64.5267 112.573 62.0457C111.906 61.5536 111.29 61.1947 110.889 60.9794Z" fill="#3D3D3D"/>
<path opacity="0.29" d="M116.322 68.0021C117.011 71.3443 117.103 74.1841 117.052 76.2345C117 78.1414 116.805 79.5357 116.6 80.9402C115.994 85.1743 115.686 87.2863 114.515 88.2705C112.296 90.1364 108.342 88.7216 107.397 88.3628C108.29 88.9574 111.505 90.977 114.648 89.8596C114.977 89.7365 115.336 89.5827 115.686 89.3572C116.055 88.7318 116.548 87.7681 116.867 86.5071C117.052 85.7587 117.103 85.2154 117.175 84.5797C117.288 83.5545 117.483 82.0577 117.812 80.1816C118.11 80.4379 118.418 80.6942 118.716 80.9505C118.818 80.4276 118.952 79.628 118.983 78.6438C119.075 76.2653 118.551 74.4609 117.945 72.4003C117.617 71.2725 117.103 69.7552 116.322 68.0021Z" fill="#3D3D3D"/>
<path d="M88.0863 41.0904C88.189 42.1873 88.3739 43.7251 88.7848 45.5398C89.0518 46.7188 89.2162 47.4672 89.5654 48.4001C90.0893 49.8046 91.0856 52.4907 93.6842 54.2438C94.3108 54.6744 95.3482 55.2485 96.8067 55.5868C97.043 55.6073 97.2792 55.6381 97.5154 55.6586C97.5976 56.0892 97.7003 56.7248 97.803 57.4937C98.0496 59.4723 97.9263 60.0772 98.4399 60.6103C99.0664 61.2562 100.063 61.1947 100.278 61.1742C101.994 61.0614 102.857 59.3596 102.898 59.2673C102.62 58.7649 102.343 58.1498 102.117 57.4322C101.624 55.8431 101.614 54.4283 101.696 53.4646C102.487 52.3266 103.36 51.4552 104.243 50.7786C104.582 50.5223 104.87 50.1737 105.373 49.9994C106.092 49.7534 106.462 49.9994 106.996 49.8354C107.879 49.5586 108.259 48.4206 108.424 47.949C109.05 46.0831 108.28 44.2377 107.787 43.1408C107.345 42.1361 106.195 39.6448 103.391 37.6969C100.504 35.6875 94.7319 33.4526 90.911 36.3539C90.2536 36.8563 88.754 38.1993 88.0863 41.0904Z" fill="white"/>
<path d="M88.9321 45.3837C88.2747 45.2709 86.1965 44.8119 85.118 43.3868C83.4746 41.2236 85.5179 38.483 86.4321 36.8837C87.8701 34.3719 88.6452 33.4807 91.9321 32.3837C93.8836 31.7378 96.4053 32.2812 98.9321 32.3837C100.329 32.4452 105.157 29.8672 107.992 33.3837C108.432 36.8837 111.705 37.7985 110.932 42.3837C111.107 44.4033 109.781 45.838 109.432 46.8837C109.932 47.8837 108.763 50.8196 106.369 51.7935C105.116 52.3061 103.956 52.2036 103.319 52.1011C103.894 51.2502 104.469 50.4095 105.055 49.5586C105.383 49.5791 106.554 49.5996 107.448 48.7897C108.67 47.6722 108.886 45.4475 107.992 44.8529C107.335 44.412 106.031 44.8426 104.901 45.8576C104.798 45.2117 104.634 44.5043 104.356 43.7764C103.062 40.3009 100.248 38.3941 98.8714 37.6046C98.327 38.3018 96.6014 40.342 93.5405 41.1519C91.1165 41.7875 89.1033 41.3364 88.2097 41.0699C88.3124 42.4846 88.8294 43.9689 88.9321 45.3837Z" fill="#F4F3EF"/>
<path d="M88.0045 41.3569C88.4256 44.5248 88.8673 47.8157 90.4183 50.6658C91.6919 53.0033 93.7462 55.0024 96.3859 55.6688C96.5811 55.7201 96.6633 55.4228 96.4681 55.3715C93.8592 54.7051 91.846 52.6957 90.6134 50.3685C89.1446 47.6004 88.7235 44.4223 88.3127 41.3569C88.2818 41.1621 87.9737 41.1621 88.0045 41.3569Z" fill="#161616"/>
<path d="M96.3858 55.7098C98.2449 55.7098 100.196 54.7154 101.655 53.6492C103.124 52.5727 104.325 51.1887 105.188 49.5893C105.281 49.415 105.014 49.2613 104.921 49.4356C104.089 50.9939 102.929 52.3471 101.501 53.3826C100.073 54.4283 98.1832 55.4023 96.3858 55.4023C96.1803 55.4023 96.1803 55.7098 96.3858 55.7098Z" fill="#161616"/>
<path d="M101.645 53.4031C101.44 55.474 101.84 57.545 102.785 59.4006C102.877 59.5749 103.145 59.4211 103.052 59.2468C102.128 57.4322 101.758 55.4228 101.953 53.4031C101.974 53.2083 101.665 53.2083 101.645 53.4031Z" fill="#161616"/>
<path d="M97.1764 55.6586C97.5153 56.8273 97.7926 58.0165 97.9981 59.216C98.1316 60.0157 98.183 60.9179 99.0766 61.2152C100.412 61.6663 102.384 60.8666 102.897 59.5441C102.969 59.3596 102.672 59.2775 102.6 59.4621C102.312 60.2105 101.593 60.6206 100.854 60.8359C100.237 61.0102 99.3025 61.1947 98.7787 60.6923C98.4706 60.395 98.4295 59.9234 98.3678 59.5236C98.2959 59.1033 98.224 58.6829 98.1419 58.2626C97.957 57.3604 97.7413 56.4582 97.4845 55.5765C97.4229 55.392 97.125 55.474 97.1764 55.6586Z" fill="#161616"/>
<path d="M97.6183 56.9298C99.4466 56.694 100.648 55.2997 101.532 53.8029C101.634 53.6287 101.367 53.4749 101.265 53.6492C100.453 55.0434 99.3233 56.407 97.6183 56.6223C97.4231 56.653 97.4231 56.9606 97.6183 56.9298Z" fill="#161616"/>
<path d="M97.5463 55.8841C98.974 55.7201 100.258 55.0537 101.213 53.9772C101.347 53.8337 101.131 53.6081 100.997 53.7619C100.104 54.7769 98.8919 55.4227 97.5463 55.5765C97.3614 55.597 97.3512 55.9046 97.5463 55.8841Z" fill="#161616"/>
<path d="M97.5975 55.6585C98.7479 55.4945 99.7854 55.0229 100.669 54.2745C100.823 54.1412 100.597 53.9259 100.453 54.0592C99.6107 54.7769 98.6144 55.2177 97.5154 55.3715C97.3202 55.392 97.4024 55.6893 97.5975 55.6585Z" fill="#161616"/>
<path d="M97.5356 55.9149C97.587 56.1609 97.5767 56.653 97.8849 56.735C98.1827 56.8171 98.6347 56.4685 98.8709 56.3249C99.6824 55.8328 100.36 55.1665 100.894 54.3873C101.007 54.2233 100.74 54.0695 100.627 54.2335C100.247 54.7974 99.7851 55.2997 99.2407 55.7098C98.9839 55.9046 98.7169 56.0686 98.4395 56.2224C98.3265 56.2839 98.0698 56.4582 97.9568 56.3865C97.8849 56.3455 97.8541 55.9046 97.8438 55.8328C97.7924 55.6381 97.4946 55.7201 97.5356 55.9149Z" fill="#161616"/>
<path d="M97.6796 56.202C98.563 55.8431 99.395 55.392 100.176 54.8487C100.34 54.7359 100.186 54.4693 100.022 54.5821C99.2614 55.1152 98.4603 55.5561 97.5975 55.9046C97.4126 55.9764 97.4948 56.2737 97.6796 56.202Z" fill="#161616"/>
<path d="M97.8338 56.5095C98.8198 56.1609 99.6826 55.6175 100.402 54.8589C100.535 54.7153 100.319 54.5001 100.186 54.6436C99.4977 55.351 98.6863 55.8841 97.7516 56.2122C97.5667 56.2839 97.6489 56.5812 97.8338 56.5095Z" fill="#161616"/>
<path d="M97.9978 56.3454C98.7271 56.0276 99.3947 55.597 99.9699 55.0434C100.114 54.9101 99.898 54.6948 99.7542 54.8281C99.1893 55.3612 98.5525 55.7713 97.8437 56.0788C97.6589 56.1609 97.8129 56.4274 97.9978 56.3454Z" fill="#161616"/>
<path d="M89.6066 49.1485C87.9323 48.5539 87.3777 46.3702 87.542 44.7913C87.7166 43.0587 89.2779 41.1724 91.1883 41.9823C92.1025 42.3719 92.4415 43.3766 92.688 44.2685C92.9448 45.2117 93.0577 46.2574 92.8112 47.2211C92.5955 48.072 92.0717 48.8819 91.25 49.251C90.4283 49.6201 89.4525 49.415 88.8978 48.7076C88.7746 48.5539 88.5589 48.7692 88.6821 48.9229C89.6168 50.1224 91.3732 49.8866 92.3182 48.8307C93.5199 47.4876 93.3967 45.4475 92.8831 43.8379C92.6469 43.0895 92.3387 42.3103 91.6506 41.8798C91.0548 41.5004 90.2947 41.4082 89.6271 41.5824C88.0659 42.0028 87.2544 43.6534 87.2236 45.1604C87.1928 46.811 87.8399 48.8512 89.5449 49.4458C89.7093 49.5073 89.7914 49.21 89.6066 49.1485Z" fill="#161616"/>
<path d="M93.1608 46.0831C94.1674 45.4783 95.3897 45.4167 96.4374 45.9396C96.612 46.0319 96.7661 45.7653 96.5915 45.673C95.4411 45.0989 94.1058 45.1502 92.9965 45.8166C92.8424 45.9191 92.9965 46.1856 93.1608 46.0831Z" fill="#161616"/>
<path d="M98.0698 48.2668C96.9091 47.1493 96.4264 45.4167 96.8783 43.8584C97.3508 42.2386 98.9737 40.8443 100.72 41.4184C102.651 42.0541 102.754 44.8119 102.25 46.4317C101.952 47.3851 101.357 48.3386 100.371 48.6871C99.3845 49.0357 98.532 48.5129 97.7411 47.9592C97.5768 47.8465 97.4227 48.113 97.587 48.2258C98.2341 48.6871 98.9326 49.1485 99.7543 49.1177C100.535 49.087 101.244 48.6564 101.726 48.072C102.815 46.7598 103.031 44.7606 102.579 43.1613C102.168 41.7055 100.956 40.7623 99.4051 41.0186C97.926 41.2544 96.8372 42.5872 96.5085 43.9814C96.1285 45.591 96.6421 47.3339 97.8335 48.4821C97.9979 48.6256 98.2136 48.4001 98.0698 48.2668Z" fill="#161616"/>
<path d="M90.5415 44.8938C90.4388 45.5397 90.5517 46.1651 90.901 46.7187C90.9729 46.8315 91.1372 46.811 91.1783 46.6777C91.4248 45.9703 91.0756 45.2732 90.7264 44.6683C90.6545 44.535 90.4388 44.5965 90.4388 44.7503C90.449 45.2937 90.562 45.8268 90.7674 46.3291C90.8393 46.5137 91.1372 46.4317 91.0653 46.2471C90.8701 45.7653 90.7572 45.2732 90.7469 44.7503C90.6545 44.7811 90.5517 44.8016 90.4593 44.8323C90.7777 45.3757 91.1064 45.9703 90.8804 46.6059C90.9729 46.5957 91.0653 46.5854 91.1578 46.5649C90.8496 46.0831 90.7366 45.5397 90.8291 44.9759C90.8702 44.7811 90.5723 44.6991 90.5415 44.8938Z" fill="#161616"/>
<path d="M99.6316 44.6068C99.6316 44.4735 99.6213 44.4428 99.5597 44.33C99.4878 44.1967 99.2721 44.2582 99.2721 44.412C99.2823 45.0476 99.3337 45.7345 99.8267 46.1856C99.9294 46.2779 100.073 46.2061 100.094 46.0728C100.176 45.3142 99.95 44.6068 99.4775 44.0122C99.3748 43.8891 99.1899 44.0224 99.2207 44.1659C99.344 44.6683 99.498 45.1604 99.6829 45.632C99.7548 45.8165 100.053 45.7345 99.9808 45.55C99.7856 45.0681 99.6316 44.5863 99.5186 44.0839C99.4364 44.1352 99.344 44.1865 99.2618 44.2377C99.6829 44.7708 99.8575 45.4065 99.7856 46.0831C99.8781 46.0421 99.9602 46.0113 100.053 45.9703C99.611 45.5705 99.5905 44.9656 99.5802 44.412C99.4878 44.4428 99.385 44.4633 99.2926 44.494C99.3029 44.535 99.3131 44.576 99.3234 44.617C99.3234 44.8016 99.6316 44.8016 99.6316 44.6068Z" fill="#161616"/>
<path d="M94.1873 46.6265C93.9818 47.2416 93.8072 47.867 93.6942 48.5026C93.6326 48.8409 93.4169 49.4766 93.571 49.8149C93.8791 50.5018 95.2452 50.0814 95.7177 49.8559C95.8923 49.7739 95.7382 49.5073 95.5636 49.5893C95.1836 49.7739 94.7727 49.8661 94.3516 49.8354C94.1051 49.8149 93.9099 49.7739 93.8586 49.4971C93.8278 49.3433 93.9305 48.9435 93.9613 48.7692C94.0846 48.0618 94.2694 47.3749 94.4954 46.6982C94.5468 46.524 94.2489 46.4419 94.1873 46.6265Z" fill="#161616"/>
<path d="M95.7384 52.5419C96.5088 52.4394 97.1764 51.9473 97.5154 51.2399C97.5975 51.0656 97.3305 50.9016 97.2483 51.0861C96.9402 51.732 96.365 52.1524 95.6563 52.2446C95.4611 52.2754 95.5535 52.5727 95.7384 52.5419Z" fill="#161616"/>
<path d="M89.894 44.0122C90.0891 43.7764 90.4486 43.7354 90.6951 43.9404C90.8492 44.0737 91.0649 43.8482 90.9108 43.7251C90.5513 43.4176 89.9967 43.4381 89.6783 43.7969C89.5447 43.9404 89.7604 44.1557 89.894 44.0122Z" fill="#161616"/>
<path d="M98.7068 43.4381C99.0252 43.1612 99.508 43.1612 99.8264 43.4278C99.9804 43.5508 100.196 43.3355 100.042 43.2125C99.5901 42.8229 98.9327 42.8332 98.4808 43.2228C98.337 43.356 98.563 43.5713 98.7068 43.4381Z" fill="#161616"/>
<path d="M102.754 44.8529C103.863 44.4633 105.003 44.2275 106.184 44.166C106.379 44.1557 106.379 43.8482 106.184 43.8584C104.982 43.9199 103.811 44.1557 102.671 44.5556C102.486 44.6273 102.558 44.9247 102.754 44.8529Z" fill="#161616"/>
<path opacity="0.4" d="M104.284 32.0788C104.9 32.8682 107.273 36.1078 106.831 40.5572C106.585 43.0382 105.558 44.8631 104.91 45.8268C105.28 45.5398 105.599 45.345 105.835 45.2117C106.461 44.8631 106.862 44.6478 107.376 44.6786C107.53 44.6888 107.899 44.7196 108.166 44.9349C108.947 45.591 108.68 47.9182 107.293 49.005C106.533 49.5996 105.64 49.6611 105.188 49.6508C104.602 50.4813 104.007 51.3117 103.421 52.1523C103.811 52.2139 104.407 52.2651 105.095 52.1626C105.393 52.1216 106.585 51.9063 107.714 51.0041C108.824 50.1122 109.276 49.0255 109.574 48.2873C110.395 46.2369 110.231 44.4325 109.943 41.1826C109.82 39.7371 109.748 38.9989 109.461 38.025C109.152 36.969 108.67 35.4107 107.293 34.0164C106.307 32.9912 105.198 32.4171 104.284 32.0788Z" fill="#3D3D3D"/>
<path opacity="0.48" d="M94.3624 40.8443C95.3896 39.9319 96.54 38.7631 97.6493 37.3073C98.3374 36.4052 98.9126 35.5337 99.3851 34.7238C99.2105 35.6465 99.0359 36.5692 98.8716 37.4919C98.471 38.066 97.8033 38.8862 96.7659 39.6346C95.8518 40.2804 94.989 40.6393 94.3624 40.8443Z" fill="#3D3D3D"/>
<path opacity="0.27" d="M101.665 39.6756C102.446 42.2693 102.507 44.4428 102.435 45.8781C102.384 46.9443 102.096 52.5317 99.1485 54.4591C98.8609 54.6436 98.1317 55.0742 98.1625 55.1357C98.2036 55.2075 99.5697 54.6026 100.319 54.1925C101.501 53.5569 103.319 52.2754 105.003 49.5688C105.281 49.5996 106.636 49.6918 107.612 48.7589C108.793 47.6414 108.999 45.4475 108.064 44.8016C107.396 44.3403 106.123 44.7298 105.003 45.6525C104.89 45.1809 104.746 44.6888 104.551 44.166C103.781 42.1361 102.62 40.6598 101.665 39.6756Z" fill="#3D3D3D"/>
<path opacity="0.36" d="M99.1898 55.0537C99.4568 55.8739 99.7239 56.694 99.9909 57.5244C100.361 58.6522 100.72 59.7902 101.08 60.9179C101.285 60.8769 101.788 60.7333 102.23 60.2823C102.672 59.8312 102.816 59.3391 102.867 59.134C102.466 58.3446 101.994 57.1451 101.829 55.6278C101.747 54.8384 101.768 54.1413 101.829 53.5569C100.956 54.0592 100.073 54.5616 99.1898 55.0537Z" fill="#3D3D3D"/>
<path opacity="0.43" d="M94.0641 46.9853C93.5506 48.0823 93.037 49.169 92.5234 50.266C93.3657 50.2455 94.1977 50.2352 95.0399 50.2147C94.5469 50.0609 94.0436 49.9071 93.5506 49.7534C93.7149 48.8307 93.8895 47.908 94.0641 46.9853Z" fill="#3D3D3D"/>
</svg>
